<svg width="776" height="146.2" viewBox="0 0 776 146.2" xmlns="http://www.w3.org/2000/svg"><g id="svgGroup" stroke-linecap="round" fill-rule="evenodd" font-size="9pt" stroke="#000000" stroke-width="0.25mm" fill="#000000" style="stroke:#000000;stroke-width:0.25mm;fill:#000000"><path d="M 126 140.6 L 10 146.2 L 0 136.2 L 9.2 8.8 L 19.2 0 L 127.8 7.2 L 126.6 26 L 27.6 19.6 L 19.8 127 L 115 122.2 L 111.6 86 L 55.8 83.6 L 56.6 64.6 L 120.6 67.6 L 129.6 76 L 134.8 130.2 L 126 140.6 Z" id="0" vector-effect="non-scaling-stroke"/><path d="M 277.4 135.2 L 164 144.4 L 153.8 134.2 L 163.4 10.8 L 173 2 L 273.8 5.2 L 273 24 L 181.4 21.2 L 178.4 60.4 L 265 59 L 265.4 78 L 176.8 79.4 L 173.4 124.8 L 275.8 116.4 L 277.4 135.2 Z" id="1" vector-effect="non-scaling-stroke"/><path d="M 419.2 134.4 L 409.6 144 L 307.6 142.8 L 298.4 132.6 L 307.4 19.8 L 316 11.4 L 404.4 2.4 L 415 11.6 L 419.2 134.4 Z M 325.4 29.4 L 396.4 22 L 400.2 125 L 318.2 124 L 325.4 29.4 Z" id="2" vector-effect="non-scaling-stroke"/><path d="M 468.8 23.8 L 463 143 L 444.2 142 L 450.4 14 L 459.4 5 L 558.2 2 L 567.8 10.2 L 576.2 77.8 L 565.8 88.2 L 550 86.6 L 577.4 135 L 561.2 144.2 L 527.4 84.2 L 485 79.8 L 487 61 L 556 68.2 L 550.2 21 L 468.8 23.8 Z" id="3" vector-effect="non-scaling-stroke"/><path d="M 719 119 L 605 144.4 L 593.4 134.4 L 604.2 10 L 616 1.8 L 715.6 26 L 723 34.8 L 726.2 109.4 L 719 119 Z M 704.4 42.8 L 707.2 102.4 L 613.4 123.2 L 622 22.4 L 704.4 42.8 Z" id="4" vector-effect="non-scaling-stroke"/><path d="M 776 4.8 L 769 142.2 L 750.2 141.2 L 757 3.8 L 776 4.8 Z" id="5" vector-effect="non-scaling-stroke"/></g></svg>