<svg width="750.802" height="138.403" viewBox="0 0 750.802 138.403" xmlns="http://www.w3.org/2000/svg"><g id="svgGroup" stroke-linecap="round" fill-rule="evenodd" font-size="9pt" stroke="#000000" stroke-width="0.25mm" fill="#000000" style="stroke:#000000;stroke-width:0.25mm;fill:#000000"><path d="M 115.601 31.202 L 100.001 37.002 Q 99.201 37.402 97.401 37.402 Q 94.801 37.402 92.001 34.402 Q 88.001 29.802 81.601 27.102 Q 75.201 24.402 67.001 24.402 Q 56.801 24.402 48.701 29.502 Q 40.601 34.602 35.901 44.602 Q 31.201 54.602 31.201 68.802 Q 31.201 90.202 41.001 102.102 Q 50.801 114.002 67.201 114.002 Q 80.201 114.002 89.301 108.202 Q 98.401 102.402 98.401 89.402 Q 98.401 85.602 94.401 85.602 L 73.001 85.602 Q 70.201 85.602 68.601 84.002 Q 67.001 82.402 67.001 79.602 L 67.001 67.402 Q 67.001 64.602 68.601 63.002 Q 70.201 61.402 73.001 61.402 L 121.801 61.402 Q 127.801 61.402 127.801 67.402 L 127.801 130.002 Q 127.801 132.802 126.201 134.402 Q 124.601 136.002 121.801 136.002 L 113.801 136.002 Q 108.601 136.002 107.201 131.002 L 105.801 126.202 Q 104.801 123.202 103.201 123.202 Q 102.201 123.202 101.201 124.402 Q 88.601 138.402 63.001 138.402 Q 43.601 138.402 29.401 129.902 Q 15.201 121.402 7.601 105.602 Q 0.001 89.802 0.001 68.802 Q 0.001 48.002 8.501 32.502 Q 17.001 17.002 32.301 8.502 Q 47.601 0.002 67.601 0.002 Q 83.801 0.002 97.201 6.002 Q 110.601 12.002 118.401 23.402 Q 119.601 25.202 119.601 26.602 Q 119.601 29.602 115.601 31.202 Z" id="0" vector-effect="non-scaling-stroke"/><path d="M 149.201 130.002 L 149.201 8.402 Q 149.201 5.602 150.801 4.002 Q 152.401 2.402 155.201 2.402 L 243.401 2.402 Q 249.401 2.402 249.401 8.402 L 249.401 22.402 Q 249.401 25.202 247.801 26.802 Q 246.201 28.402 243.401 28.402 L 182.801 28.402 Q 178.801 28.402 178.801 32.402 L 178.801 50.402 Q 178.801 54.402 182.801 54.402 L 217.801 54.402 Q 223.801 54.402 223.801 60.402 L 223.801 74.202 Q 223.801 77.002 222.201 78.602 Q 220.601 80.202 217.801 80.202 L 182.801 80.202 Q 178.801 80.202 178.801 84.202 L 178.801 106.002 Q 178.801 110.002 182.801 110.002 L 244.201 110.002 Q 250.201 110.002 250.201 116.002 L 250.201 130.002 Q 250.201 132.802 248.601 134.402 Q 247.001 136.002 244.201 136.002 L 155.201 136.002 Q 152.401 136.002 150.801 134.402 Q 149.201 132.802 149.201 130.002 Z" id="1" vector-effect="non-scaling-stroke"/><path d="M 332.001 138.402 Q 312.001 138.402 296.501 129.702 Q 281.001 121.002 272.301 105.302 Q 263.601 89.602 263.601 69.202 Q 263.601 48.802 272.301 33.102 Q 281.001 17.402 296.501 8.702 Q 312.001 0.002 332.001 0.002 Q 352.001 0.002 367.501 8.702 Q 383.001 17.402 391.701 33.102 Q 400.401 48.802 400.401 69.202 Q 400.401 89.602 391.701 105.302 Q 383.001 121.002 367.501 129.702 Q 352.001 138.402 332.001 138.402 Z M 332.001 114.002 Q 321.601 114.002 313.201 108.802 Q 304.801 103.602 299.901 93.502 Q 295.001 83.402 295.001 69.202 Q 295.001 55.002 299.901 44.902 Q 304.801 34.802 313.201 29.602 Q 321.601 24.402 332.001 24.402 Q 342.401 24.402 350.801 29.602 Q 359.201 34.802 364.101 44.902 Q 369.001 55.002 369.001 69.202 Q 369.001 83.402 364.101 93.502 Q 359.201 103.602 350.801 108.802 Q 342.401 114.002 332.001 114.002 Z" id="2" vector-effect="non-scaling-stroke"/><path d="M 418.601 130.002 L 418.601 8.402 Q 418.601 5.602 420.201 4.002 Q 421.801 2.402 424.601 2.402 L 477.801 2.402 Q 500.201 2.402 514.401 12.802 Q 528.601 23.202 528.601 43.802 Q 528.601 58.602 521.201 67.902 Q 513.801 77.202 500.801 81.402 Q 498.001 82.402 498.001 84.402 Q 498.001 85.602 498.801 86.602 L 529.401 128.602 Q 530.801 130.602 530.801 132.202 Q 530.801 134.002 529.401 135.002 Q 528.001 136.002 525.601 136.002 L 504.401 136.002 Q 499.801 136.002 497.201 132.202 L 465.801 87.802 Q 463.801 85.202 461.001 85.202 L 452.201 85.202 Q 448.201 85.202 448.201 89.202 L 448.201 130.002 Q 448.201 132.802 446.601 134.402 Q 445.001 136.002 442.201 136.002 L 424.601 136.002 Q 421.801 136.002 420.201 134.402 Q 418.601 132.802 418.601 130.002 Z M 476.601 27.602 Q 486.201 27.602 491.901 31.502 Q 497.601 35.402 497.601 43.802 Q 497.601 52.202 491.901 56.102 Q 486.201 60.002 476.601 60.002 L 452.201 60.002 Q 448.201 60.002 448.201 56.002 L 448.201 31.602 Q 448.201 27.602 452.201 27.602 L 476.601 27.602 Z" id="3" vector-effect="non-scaling-stroke"/><path d="M 548.801 130.002 L 548.801 8.402 Q 548.801 5.602 550.401 4.002 Q 552.001 2.402 554.801 2.402 L 591.801 2.402 Q 628.001 2.402 648.201 18.302 Q 668.401 34.202 668.401 69.202 Q 668.401 136.002 591.801 136.002 L 554.801 136.002 Q 552.001 136.002 550.401 134.402 Q 548.801 132.802 548.801 130.002 Z M 592.201 27.002 Q 614.201 27.002 626.101 36.002 Q 638.001 45.002 638.001 69.202 Q 638.001 85.802 632.301 95.002 Q 626.601 104.202 616.601 107.602 Q 606.601 111.002 592.201 111.002 L 582.401 111.002 Q 578.401 111.002 578.401 107.002 L 578.401 31.002 Q 578.401 27.002 582.401 27.002 L 592.201 27.002 Z" id="4" vector-effect="non-scaling-stroke"/><path d="M 684.001 130.002 L 684.001 120.202 Q 684.001 114.202 690.001 114.202 L 698.601 114.202 Q 702.601 114.202 702.601 110.202 L 702.601 28.202 Q 702.601 24.202 698.601 24.202 L 690.001 24.202 Q 687.201 24.202 685.601 22.602 Q 684.001 21.002 684.001 18.202 L 684.001 8.402 Q 684.001 2.402 690.001 2.402 L 744.801 2.402 Q 750.801 2.402 750.801 8.402 L 750.801 18.202 Q 750.801 24.202 744.801 24.202 L 736.201 24.202 Q 732.201 24.202 732.201 28.202 L 732.201 110.202 Q 732.201 114.202 736.201 114.202 L 744.801 114.202 Q 750.801 114.202 750.801 120.202 L 750.801 130.002 Q 750.801 136.002 744.801 136.002 L 690.001 136.002 Q 687.201 136.002 685.601 134.402 Q 684.001 132.802 684.001 130.002 Z" id="5" vector-effect="non-scaling-stroke"/></g></svg>